# xmcd CD database file
#
# Track frame offsets:
#	150
#	30714
#	44747
#	78752
#	100756
#	111430
#	125073
#	138075
#	157353
#	176519
#	211442
#	224555
#	237824
#
# Disc length: 3358 seconds
#
# Revision: 0
# Processed by: cddbd v1.5.2PL0 Copyright (c) Steve Scherf et al.
# Submitted via: CDex 1.70beta2
#
DISCID=bf0d1c0d
DTITLE=Various Artist - Salsa Brava CD 1
DYEAR=2007
DGENRE=Salsa
TTITLE0=Gitana
TTITLE1=El Carretero
TTITLE2=Juanito Alimaña
TTITLE3=Un Verano En New York
TTITLE4=Huérfano Soy
TTITLE5=La Pachanga Se Baila
TTITLE6=El Forastero
TTITLE7=Juliana
TTITLE8=Oye Como Va
TTITLE9=La Juma De Ayer
TTITLE10=Lluvia Con Nieve
TTITLE11=Quiéreme Siempre
TTITLE12=Juantanamera
EXTD=YEAR: 2007
EXTT0=
EXTT1=
EXTT2=
EXTT3=
EXTT4=
EXTT5=
EXTT6=
EXTT7=
EXTT8=
EXTT9=
EXTT10=
EXTT11=
EXTT12=
PLAYORDER=
